<svg width="28" height="28" viewBox="0 0 28 28" fill="none" xmlns="http://www.w3.org/2000/svg" style="background: transparent;">
  <path d="M4 9C4 7.34315 5.34315 6 7 6H21C22.6569 6 24 7.34315 24 9V21C24 22.6569 22.6569 24 21 24H7C5.34315 24 4 22.6569 4 21V9Z" stroke="url(#gradient2)" stroke-width="2"/>
  <path d="M8 6V4C8 2.89543 8.89543 2 10 2H18C19.1046 2 20 2.89543 20 4V6" stroke="url(#gradient2)" stroke-width="2" stroke-linecap="round"/>
  <path d="M9 13H19M9 17H15" stroke="url(#gradient2)" stroke-width="2" stroke-linecap="round"/>
  <circle cx="20" cy="18" r="2" fill="url(#gradient2)"/>
  <defs>
    <linearGradient id="gradient2" x1="0" y1="0" x2="28" y2="28" gradientUnits="userSpaceOnUse">
      <stop offset="0%" stop-color="#60a5fa"/>
      <stop offset="100%" stop-color="#3b82f6"/>
    </linearGradient>
  </defs>
</svg>
