<svg width="28" height="28" viewBox="0 0 28 28" fill="none" xmlns="http://www.w3.org/2000/svg" style="background: transparent;">
  <circle cx="14" cy="14" r="10" stroke="url(#gradient6)" stroke-width="2"/>
  <path d="M14 4C14 4 10 8 10 14C10 20 14 24 14 24M14 4C14 4 18 8 18 14C18 20 14 24 14 24M4 14C4 14 8 10 14 10C20 10 24 14 24 14M4 14C4 14 8 18 14 18C20 18 24 14 24 14" stroke="url(#gradient6)" stroke-width="2"/>
  <defs>
    <linearGradient id="gradient6" x1="0" y1="0" x2="28" y2="28" gradientUnits="userSpaceOnUse">
      <stop offset="0%" stop-color="#f59e0b"/>
      <stop offset="100%" stop-color="#f97316"/>
    </linearGradient>
  </defs>
</svg>
